<svg xmlns="http://www.w3.org/2000/svg" viewBox="0 0 500 500"><g id="freepik--background-simple--inject-73"><path d="M455.61,325.49c30.63-86.8-8.21-182.83-89.69-225.64A870.7,870.7,0,0,0,252.23,50C134.27,8.22,47.46,135.46,48.78,230.89S99.15,434.33,219.76,443s200.13-21.21,234.59-114C454.78,327.8,455.2,326.65,455.61,325.49Z" style="fill:#E9F199"></path><path d="M455.61,325.49c30.63-86.8-8.21-182.83-89.69-225.64A870.7,870.7,0,0,0,252.23,50C134.27,8.22,47.46,135.46,48.78,230.89S99.15,434.33,219.76,443s200.13-21.21,234.59-114C454.78,327.8,455.2,326.65,455.61,325.49Z" style="fill:#fff;opacity:0.7000000000000001"></path></g><g id="freepik--Plant--inject-73"><line x1="39.49" y1="291.03" x2="56.83" y2="454.75" style="fill:none;stroke:#263238;stroke-linecap:round;stroke-linejoin:round"></line><line x1="54.29" y1="433.11" x2="46.59" y2="425.02" style="fill:none;stroke:#263238;stroke-linecap:round;stroke-linejoin:round"></line><path d="M49.13,427.66a9.47,9.47,0,0,0-3.32-7.09c-2.15-1.91-13.44-6.66-14.51-2.68C30.14,422.21,41.69,430.7,49.13,427.66Z" style="fill:#E9F199;stroke:#263238;stroke-linejoin:round"></path><line x1="49.13" y1="427.66" x2="38.39" y2="420.97" style="fill:none;stroke:#263238;stroke-linecap:round;stroke-linejoin:round"></line><line x1="56.2" y1="451.35" x2="48.69" y2="445.1" style="fill:none;stroke:#263238;stroke-linecap:round;stroke-linejoin:round"></line><path d="M51.23,447.75a9.45,9.45,0,0,0-3.33-7.09C45.76,438.74,34.47,434,33.4,438,32.23,442.3,43.79,450.79,51.23,447.75Z" style="fill:#E9F199;stroke:#263238;stroke-linejoin:round"></path><line x1="51.23" y1="447.75" x2="40.48" y2="441.05" style="fill:none;stroke:#263238;stroke-linecap:round;stroke-linejoin:round"></line><line x1="49.07" y1="382.83" x2="41.48" y2="376" style="fill:none;stroke:#263238;stroke-linecap:round;stroke-linejoin:round"></line><path d="M44,378.65a9.45,9.45,0,0,0-3.33-7.09c-2.14-1.92-13.43-6.67-14.5-2.69C25,373.19,36.58,381.69,44,378.65Z" style="fill:#E9F199;stroke:#263238;stroke-linejoin:round"></path><line x1="44.02" y1="378.65" x2="33.27" y2="371.95" style="fill:none;stroke:#263238;stroke-linecap:round;stroke-linejoin:round"></line><line x1="51.18" y1="404.19" x2="43.57" y2="396.09" style="fill:none;stroke:#263238;stroke-linecap:round;stroke-linejoin:round"></line><path d="M46.11,398.73a9.45,9.45,0,0,0-3.32-7.08C40.64,389.73,29.36,385,28.28,389,27.12,393.28,38.67,401.77,46.11,398.73Z" style="fill:#E9F199;stroke:#263238;stroke-linejoin:round"></path><line x1="46.11" y1="398.73" x2="35.37" y2="392.04" style="fill:none;stroke:#263238;stroke-linecap:round;stroke-linejoin:round"></line><line x1="45.69" y1="351.13" x2="38.07" y2="343.37" style="fill:none;stroke:#263238;stroke-linecap:round;stroke-linejoin:round"></line><path d="M40.61,346a9.46,9.46,0,0,0-3.32-7.09c-2.15-1.92-13.44-6.66-14.51-2.69C21.62,340.57,33.17,349.06,40.61,346Z" style="fill:#E9F199;stroke:#263238;stroke-linejoin:round"></path><line x1="40.61" y1="346.02" x2="29.87" y2="339.32" style="fill:none;stroke:#263238;stroke-linecap:round;stroke-linejoin:round"></line><line x1="42.02" y1="316.24" x2="34.65" y2="310.6" style="fill:none;stroke:#263238;stroke-linecap:round;stroke-linejoin:round"></line><path d="M37.19,313.25a9.46,9.46,0,0,0-3.32-7.09c-2.15-1.92-13.44-6.67-14.51-2.69C18.2,307.79,29.75,316.29,37.19,313.25Z" style="fill:#E9F199;stroke:#263238;stroke-linejoin:round"></path><line x1="37.19" y1="313.25" x2="26.45" y2="306.55" style="fill:none;stroke:#263238;stroke-linecap:round;stroke-linejoin:round"></line><line x1="53.55" y1="421.96" x2="59.9" y2="411.6" style="fill:none;stroke:#263238;stroke-linecap:round;stroke-linejoin:round"></line><path d="M58,414.71a9.46,9.46,0,0,1,1.79-7.62c1.71-2.32,11.77-9.3,13.64-5.63C75.42,405.45,65.87,416.15,58,414.71Z" style="fill:#E9F199;stroke:#263238;stroke-linejoin:round"></path><line x1="57.96" y1="414.71" x2="65.52" y2="407.61" style="fill:none;stroke:#263238;stroke-linecap:round;stroke-linejoin:round"></line><line x1="48.03" y1="369.1" x2="54.38" y2="358.74" style="fill:none;stroke:#263238;stroke-linecap:round;stroke-linejoin:round"></line><path d="M52.44,361.85a9.44,9.44,0,0,1,1.8-7.62c1.7-2.32,9.57-8.12,11.44-4.45C67.71,353.77,60.35,363.29,52.44,361.85Z" style="fill:#E9F199;stroke:#263238;stroke-linejoin:round"></path><line x1="52.44" y1="361.85" x2="62.12" y2="352.6" style="fill:none;stroke:#263238;stroke-linecap:round;stroke-linejoin:round"></line><line x1="45.61" y1="345.87" x2="51.96" y2="335.51" style="fill:none;stroke:#263238;stroke-linecap:round;stroke-linejoin:round"></line><path d="M50,338.62A9.46,9.46,0,0,1,51.81,331c1.7-2.32,11.77-9.29,13.64-5.63C67.48,329.36,57.93,340.06,50,338.62Z" style="fill:#E9F199;stroke:#263238;stroke-linejoin:round"></path><line x1="50.02" y1="338.62" x2="59.7" y2="329.37" style="fill:none;stroke:#263238;stroke-linecap:round;stroke-linejoin:round"></line><line x1="42.05" y1="311.82" x2="48.4" y2="301.46" style="fill:none;stroke:#263238;stroke-linecap:round;stroke-linejoin:round"></line><path d="M46.47,304.57A9.46,9.46,0,0,1,48.26,297c1.7-2.32,11.76-9.3,13.63-5.63C63.93,295.31,54.38,306,46.47,304.57Z" style="fill:#E9F199;stroke:#263238;stroke-linejoin:round"></path><line x1="46.47" y1="304.57" x2="56.14" y2="295.32" style="fill:none;stroke:#263238;stroke-linecap:round;stroke-linejoin:round"></line><path d="M39.33,290a9.46,9.46,0,0,1,1.79-7.62c1.71-2.31,11.77-9.29,13.64-5.62C56.79,280.79,47.24,291.48,39.33,290Z" style="fill:#E9F199;stroke:#263238;stroke-linejoin:round"></path><line x1="39.33" y1="290.04" x2="49.01" y2="280.8" style="fill:none;stroke:#263238;stroke-linecap:round;stroke-linejoin:round"></line><path d="M39.89,290.44a9.46,9.46,0,0,1-7.39-2.58c-2.12-1.93-8-12.67-4.16-14.15C32.52,272.11,42.15,282.73,39.89,290.44Z" style="fill:#E9F199;stroke:#263238;stroke-linejoin:round"></path><line x1="39.89" y1="290.44" x2="31.71" y2="279.85" style="fill:none;stroke:#263238;stroke-linecap:round;stroke-linejoin:round"></line><line x1="67.1" y1="243.43" x2="67.46" y2="454.56" style="fill:none;stroke:#263238;stroke-linecap:round;stroke-linejoin:round"></line><line x1="88.1" y1="315.35" x2="73.42" y2="454" style="fill:none;stroke:#263238;stroke-linecap:round;stroke-linejoin:round"></line><line x1="73.42" y1="454" x2="69.41" y2="451.04" style="fill:none;stroke:#263238;stroke-linecap:round;stroke-linejoin:round"></line><path d="M69.41,451a9.44,9.44,0,0,0-1.8-7.62c-1.7-2.31-11.77-9.28-13.64-5.61C51.94,441.8,61.5,452.49,69.41,451Z" style="fill:#E9F199;stroke:#263238;stroke-linejoin:round"></path><line x1="69.41" y1="451.04" x2="60.27" y2="442.28" style="fill:none;stroke:#263238;stroke-linecap:round;stroke-linejoin:round"></line><line x1="78.43" y1="404.63" x2="72.53" y2="400.21" style="fill:none;stroke:#263238;stroke-linecap:round;stroke-linejoin:round"></line><path d="M74.49,402a9.48,9.48,0,0,0-1.79-7.63c-1.7-2.31-11.77-9.28-13.64-5.61C57,392.78,66.59,403.47,74.49,402Z" style="fill:#E9F199;stroke:#263238;stroke-linejoin:round"></path><line x1="74.49" y1="402.03" x2="65.36" y2="393.26" style="fill:none;stroke:#263238;stroke-linecap:round;stroke-linejoin:round"></line><line x1="76.83" y1="429.36" x2="70.47" y2="419" style="fill:none;stroke:#263238;stroke-linecap:round;stroke-linejoin:round"></line><path d="M72.41,422.11a9.46,9.46,0,0,0-1.79-7.62c-1.71-2.31-11.78-9.29-13.64-5.62C55,412.87,64.5,423.56,72.41,422.11Z" style="fill:#E9F199;stroke:#263238;stroke-linejoin:round"></path><line x1="72.41" y1="422.11" x2="63.27" y2="413.35" style="fill:none;stroke:#263238;stroke-linecap:round;stroke-linejoin:round"></line><line x1="82.01" y1="373.28" x2="75.94" y2="366.28" style="fill:none;stroke:#263238;stroke-linecap:round;stroke-linejoin:round"></line><path d="M77.88,369.39a9.46,9.46,0,0,0-1.79-7.62c-1.71-2.31-11.78-9.28-13.64-5.61C60.42,360.15,70,370.84,77.88,369.39Z" style="fill:#E9F199;stroke:#263238;stroke-linejoin:round"></path><line x1="77.88" y1="369.39" x2="68.74" y2="360.63" style="fill:none;stroke:#263238;stroke-linecap:round;stroke-linejoin:round"></line><line x1="85.2" y1="342.61" x2="79.34" y2="333.51" style="fill:none;stroke:#263238;stroke-linecap:round;stroke-linejoin:round"></line><path d="M81.28,336.62A9.46,9.46,0,0,0,79.49,329c-1.71-2.32-11.78-9.29-13.64-5.62C63.82,327.37,73.37,338.06,81.28,336.62Z" style="fill:#E9F199;stroke:#263238;stroke-linejoin:round"></path><line x1="81.28" y1="336.62" x2="72.14" y2="327.85" style="fill:none;stroke:#263238;stroke-linecap:round;stroke-linejoin:round"></line><line x1="74.9" y1="446.37" x2="83.25" y2="437.54" style="fill:none;stroke:#263238;stroke-linecap:round;stroke-linejoin:round"></line><path d="M80.71,440.19A9.45,9.45,0,0,1,84,433.1c2.14-1.92,13.43-6.68,14.5-2.7C99.71,434.72,88.16,443.22,80.71,440.19Z" style="fill:#E9F199;stroke:#263238;stroke-linejoin:round"></path><line x1="80.71" y1="440.19" x2="92.09" y2="433.13" style="fill:none;stroke:#263238;stroke-linecap:round;stroke-linejoin:round"></line><line x1="80.39" y1="393.51" x2="88.74" y2="384.68" style="fill:none;stroke:#263238;stroke-linecap:round;stroke-linejoin:round"></line><path d="M86.2,387.32a9.47,9.47,0,0,1,3.32-7.09c2.15-1.91,13.43-6.67,14.5-2.69C105.19,381.86,93.64,390.36,86.2,387.32Z" style="fill:#E9F199;stroke:#263238;stroke-linejoin:round"></path><line x1="86.2" y1="387.32" x2="97.57" y2="380.27" style="fill:none;stroke:#263238;stroke-linecap:round;stroke-linejoin:round"></line><line x1="82.8" y1="370.28" x2="91.15" y2="361.45" style="fill:none;stroke:#263238;stroke-linecap:round;stroke-linejoin:round"></line><path d="M88.61,364.09A9.47,9.47,0,0,1,91.93,357c2.15-1.91,13.43-6.67,14.5-2.69C107.6,358.63,96.05,367.13,88.61,364.09Z" style="fill:#E9F199;stroke:#263238;stroke-linejoin:round"></path><line x1="88.61" y1="364.09" x2="99.98" y2="357.04" style="fill:none;stroke:#263238;stroke-linecap:round;stroke-linejoin:round"></line><line x1="86.23" y1="334.48" x2="94.68" y2="327.39" style="fill:none;stroke:#263238;stroke-linecap:round;stroke-linejoin:round"></line><path d="M92.14,330A9.45,9.45,0,0,1,95.47,323c2.14-1.92,13.42-6.67,14.5-2.7C111.14,324.57,99.59,333.07,92.14,330Z" style="fill:#E9F199;stroke:#263238;stroke-linejoin:round"></path><line x1="92.14" y1="330.04" x2="103.52" y2="322.98" style="fill:#E9F199;stroke:#263238;stroke-linejoin:round"></line><path d="M88.15,314.36a9.45,9.45,0,0,1,3.33-7.09c2.14-1.92,13.42-6.68,14.5-2.7C107.15,308.89,95.6,317.39,88.15,314.36Z" style="fill:#E9F199;stroke:#263238;stroke-linejoin:round"></path><line x1="88.15" y1="314.36" x2="99.53" y2="307.3" style="fill:none;stroke:#263238;stroke-linecap:round;stroke-linejoin:round"></line><path d="M88.62,314.86a9.46,9.46,0,0,1-6.7-4c-1.68-2.34-5.23-14.06-1.16-14.71C85.18,295.4,92.42,307.78,88.62,314.86Z" style="fill:#E9F199;stroke:#263238;stroke-linejoin:round"></path><line x1="88.62" y1="314.86" x2="82.79" y2="302.81" style="fill:none;stroke:#263238;stroke-linecap:round;stroke-linejoin:round"></line><line x1="66.8" y1="432.79" x2="59.88" y2="423.55" style="fill:none;stroke:#263238;stroke-linecap:round;stroke-linejoin:round"></line><path d="M62.13,426.45a9.45,9.45,0,0,0-2.57-7.4c-1.93-2.12-12.67-8-14.14-4.18C43.81,419.05,54.42,428.7,62.13,426.45Z" style="fill:#E9F199;stroke:#263238;stroke-linejoin:round"></path><line x1="62.13" y1="426.45" x2="52.14" y2="418.67" style="fill:none;stroke:#263238;stroke-linecap:round;stroke-linejoin:round"></line><line x1="67.04" y1="388.24" x2="59.88" y2="381.58" style="fill:none;stroke:#263238;stroke-linecap:round;stroke-linejoin:round"></line><path d="M62.13,384.47a9.42,9.42,0,0,0-2.57-7.39c-1.93-2.13-12.67-8-14.14-4.18C43.81,377.08,54.42,386.72,62.13,384.47Z" style="fill:#E9F199;stroke:#263238;stroke-linejoin:round"></path><line x1="62.13" y1="384.47" x2="52.14" y2="376.7" style="fill:none;stroke:#263238;stroke-linecap:round;stroke-linejoin:round"></line><line x1="67.28" y1="341.94" x2="59.88" y2="332.3" style="fill:none;stroke:#263238;stroke-linecap:round;stroke-linejoin:round"></line><path d="M62.13,335.19a9.42,9.42,0,0,0-2.57-7.39c-1.93-2.13-12.67-8-14.14-4.18C43.81,327.8,54.42,337.44,62.13,335.19Z" style="fill:#E9F199;stroke:#263238;stroke-linejoin:round"></path><line x1="62.13" y1="335.19" x2="52.14" y2="327.42" style="fill:none;stroke:#263238;stroke-linecap:round;stroke-linejoin:round"></line><line x1="66.8" y1="305.72" x2="59.88" y2="299.49" style="fill:none;stroke:#263238;stroke-linecap:round;stroke-linejoin:round"></line><path d="M62.13,302.39a9.45,9.45,0,0,0-2.57-7.4c-1.93-2.13-12.67-8-14.14-4.18C43.81,295,54.42,304.64,62.13,302.39Z" style="fill:#E9F199;stroke:#263238;stroke-linejoin:round"></path><line x1="62.13" y1="302.39" x2="52.14" y2="294.61" style="fill:none;stroke:#263238;stroke-linecap:round;stroke-linejoin:round"></line><line x1="67.19" y1="272.9" x2="60.03" y2="267.64" style="fill:none;stroke:#263238;stroke-linecap:round;stroke-linejoin:round"></line><path d="M62.13,269.44a9.45,9.45,0,0,0-2.57-7.4c-1.93-2.13-12.67-8-14.14-4.18C43.81,262,54.42,271.69,62.13,269.44Z" style="fill:#E9F199;stroke:#263238;stroke-linejoin:round"></path><line x1="62.13" y1="269.44" x2="52.14" y2="261.66" style="fill:none;stroke:#263238;stroke-linecap:round;stroke-linejoin:round"></line><line x1="68.55" y1="443.94" x2="74.51" y2="436.37" style="fill:none;stroke:#263238;stroke-linecap:round;stroke-linejoin:round"></line><path d="M72.26,439.27a9.49,9.49,0,0,1,2.57-7.4c1.94-2.13,12.67-8,14.15-4.18C90.59,431.87,80,441.52,72.26,439.27Z" style="fill:#E9F199;stroke:#263238;stroke-linejoin:round"></path><line x1="72.26" y1="439.27" x2="82.84" y2="431.07" style="fill:none;stroke:#263238;stroke-linecap:round;stroke-linejoin:round"></line><line x1="67.12" y1="379.26" x2="74.51" y2="369.61" style="fill:none;stroke:#263238;stroke-linecap:round;stroke-linejoin:round"></line><path d="M72.26,372.51a9.49,9.49,0,0,1,2.57-7.4c1.94-2.13,12.67-8,14.15-4.18C90.59,365.11,80,374.76,72.26,372.51Z" style="fill:#E9F199;stroke:#263238;stroke-linejoin:round"></path><line x1="72.26" y1="372.51" x2="82.84" y2="364.31" style="fill:none;stroke:#263238;stroke-linecap:round;stroke-linejoin:round"></line><line x1="67.12" y1="346.31" x2="74.51" y2="336.66" style="fill:none;stroke:#263238;stroke-linecap:round;stroke-linejoin:round"></line><path d="M72.26,339.56a9.49,9.49,0,0,1,2.57-7.4C76.77,330,87.5,324.14,89,328,90.59,332.16,80,341.81,72.26,339.56Z" style="fill:#E9F199;stroke:#263238;stroke-linejoin:round"></path><line x1="72.26" y1="339.56" x2="82.84" y2="331.36" style="fill:none;stroke:#263238;stroke-linecap:round;stroke-linejoin:round"></line><line x1="67.12" y1="302.76" x2="74.51" y2="293.11" style="fill:none;stroke:#263238;stroke-linecap:round;stroke-linejoin:round"></line><path d="M72.26,296a9.49,9.49,0,0,1,2.57-7.4c1.94-2.13,12.67-8,14.15-4.18C90.59,288.61,80,298.26,72.26,296Z" style="fill:#E9F199;stroke:#263238;stroke-linejoin:round"></path><line x1="72.26" y1="296.01" x2="82.84" y2="287.81" style="fill:none;stroke:#263238;stroke-linecap:round;stroke-linejoin:round"></line><line x1="67.43" y1="265.17" x2="74.68" y2="259.52" style="fill:none;stroke:#263238;stroke-linecap:round;stroke-linejoin:round"></line><path d="M72.26,261.77a9.49,9.49,0,0,1,2.57-7.4c1.94-2.13,12.67-8,14.15-4.18C90.59,254.37,80,264,72.26,261.77Z" style="fill:#E9F199;stroke:#263238;stroke-linejoin:round"></path><line x1="72.26" y1="261.77" x2="82.84" y2="253.57" style="fill:none;stroke:#263238;stroke-linecap:round;stroke-linejoin:round"></line><path d="M66.67,246.58a9.46,9.46,0,0,1,2.57-7.39c1.94-2.13,12.67-8,14.15-4.18C85,239.19,74.39,248.83,66.67,246.58Z" style="fill:#E9F199;stroke:#263238;stroke-linejoin:round"></path><line x1="66.67" y1="246.58" x2="77.26" y2="238.39" style="fill:none;stroke:#263238;stroke-linecap:round;stroke-linejoin:round"></line><path d="M67.19,247a9.48,9.48,0,0,1-7.09-3.34c-1.91-2.14-6.65-13.44-2.67-14.5C61.76,228,70.24,239.6,67.19,247Z" style="fill:#E9F199;stroke:#263238;stroke-linejoin:round"></path><line x1="67.19" y1="247.04" x2="60.15" y2="235.65" style="fill:none;stroke:#263238;stroke-linecap:round;stroke-linejoin:round"></line></g><g id="freepik--Character--inject-73"><path d="M267.7,454.87H120.42l-9-118.89a5.47,5.47,0,0,1,5.46-5.89h136.3a5.48,5.48,0,0,1,5.46,5.07l9,119.58Z" style="fill:#c2c2c2;stroke:#263238;stroke-miterlimit:10"></path><path d="M141.61,454.74l9.7-49.93s-1.82-10.19-6.15-29.6c-2.95-13.22-11.28-28.46-16.73-45.12H253.21a5.48,5.48,0,0,1,5.46,5.07l9,119.58Z" style="fill:#263238;stroke:#263238;stroke-miterlimit:10"></path><path d="M286.66,196.15a182.46,182.46,0,0,0-25-58.24c-15.51-23.68-33.2-21-33.2-21s-19.87-1.63-33.21,8.71c0,0-13.28,6.7-20.1,34.73-2,8.15-18,50.08-19.7,58.73-6.06,30.69,1.76,40.11,8.71,49.63,7.4,10.12,28.1,9.87,28.1,9.87l36.2-1.91s73.48,7.9,74.3-9S289.38,208.13,286.66,196.15Z" style="fill:#263238;stroke:#263238;stroke-miterlimit:10"></path><path d="M152.87,375.21c4.33,19.41,6.15,29.6,6.15,29.6l-9.69,49.93H304l-9.7-49.93s1.82-10.19,6.15-29.6,20.27-43.18,21.64-69.39-13.67-29.6-25.51-32.51-42.83-5.1-42.83-5.1l-27.1-1-27.11,1s-31,2.19-42.82,5.1-26.88,6.31-25.51,32.51S148.55,355.8,152.87,375.21Z" style="fill:#E9F199;stroke:#263238;stroke-miterlimit:10"></path><path d="M248.44,230.12l-21.11,8.49-21.11-8.49s.81,28.63-4.85,38.82c0,0,22.56,71.34,26,72.07,3.4-.73,26-72.07,26-72.07C247.63,258.75,248.44,230.12,248.44,230.12Z" style="fill:#fff;stroke:#263238;stroke-miterlimit:10"></path><polygon points="228.37 247.77 205.84 253.07 206.22 230.12 228.37 247.77" style="fill:#263238;stroke:#263238;stroke-miterlimit:10"></polygon><path d="M217.1,145.33s-16.17,19.52-21.34,25-7.35,7.35-7.35,7.35,5.71,40,7.35,44.37,21.06,26.44,23.51,27.53,14,1.27,16.17-1.18,19.92-25.26,21.28-30.16,1.09-38.65,1.09-38.65-19.59-4.36-26.67-14.7S218.62,145,218.62,145l-8.44-13.33s-.41.24,1.22,5.14A22.81,22.81,0,0,0,217.1,145.33Z" style="fill:#fff;stroke:#263238;stroke-miterlimit:10"></path><path d="M189.34,181.27s17.44-6.58,21.89-18.15,3-17.32,3-17.32l-9.62,8.6s2,8.19-2.85,13.88-10.14,11-14,7.48" style="fill:#263238;stroke:#263238;stroke-miterlimit:10"></path><path d="M218.62,145s12.54,31.49,22.14,35.76,15.66-.71,15.66-.71l1.39-.48a9.63,9.63,0,0,1-11.17-.41c-5.88-4.27-9.79-10.14-10.86-14.59" style="fill:#263238;stroke:#263238;stroke-miterlimit:10"></path><path d="M215.35,203.5s-8.16-6.53-14.15-2.18" style="fill:none;stroke:#263238;stroke-miterlimit:10"></path><path d="M234.41,203s9.25-7.07,15.24-2.72" style="fill:none;stroke:#263238;stroke-miterlimit:10"></path><path d="M201.2,189.89s10.34-2.18,15.79,3.27" style="fill:none;stroke:#263238;stroke-linecap:round;stroke-miterlimit:10;stroke-width:2px"></path><path d="M233,192.88s8.17-7.07,16.33-4.89" style="fill:none;stroke:#263238;stroke-linecap:round;stroke-miterlimit:10;stroke-width:2px"></path><path d="M220.8,216.84s3.53,3,6,2.44,4.63-3.81,4.63-3.81" style="fill:none;stroke:#263238;stroke-miterlimit:10"></path><path d="M220,228.27s7.62-4.9,12.52-.28" style="fill:none;stroke:#263238;stroke-miterlimit:10"></path><path d="M318.57,284s8.73,2.19,7.52,15.29-7.28,37.61-16.26,56.78-19.65,32.52-23.78,36.16-17-6.07-17-6.07-17.23-32.76-6.07-56.05,26.45-38.83,33-45.86S318.57,284,318.57,284Z" style="fill:#E9F199;stroke:#263238;stroke-miterlimit:10"></path><path d="M270.88,219s-3,32.66-17.15,54.44-19.32,39.19-7.62,49.53,31.57,11.7,40.55,4.63,6.81-8.71,3.54-18.51,8.44-8.16,18.24-14.15,18.78-9.26,15.78-24.23-5.71-24.49-19.6-43.54-20.14-33.48-20.14-33.48" style="fill:#263238;stroke:#263238;stroke-miterlimit:10"></path><path d="M268.82,232.06s-7.76-11.89-9.95-20.39-5.33-25,2.92-18.44,15.53,31.55,14.31,33.25S268.82,232.06,268.82,232.06Z" style="fill:#fff;stroke:#263238;stroke-miterlimit:10"></path><path d="M268.58,258.26c-1.46,4.37,1,19.17,1,19.17l-16.74,1.7s-2.43-18.68-.49-27.66,12.86-19.9,12.86-19.9-.48-10.67-1.94-17-4.12-13.83-4.12-17.47,0-9.22,1.21-9.47,3.15,1,5.58,4.86,14.32,28.39,16.74,32.75,2.67,6.8.73,10.92S268.58,258.26,268.58,258.26Z" style="fill:#fff;stroke:#263238;stroke-miterlimit:10"></path><path d="M264.46,235.21s-3.4-23.05-3.16-27.9,2.43-8.5,4.13-5.58,1.94,14.56,3.88,19.65,3.64,9,3.15,12.62" style="fill:#fff;stroke:#263238;stroke-miterlimit:10"></path><path d="M259.36,194s1.46-4.61,5.34,1.7,8.73,25,11.4,30.82c0,0,2.67,2.42,1.94,5.33l-.72,2.92" style="fill:none;stroke:#263238;stroke-miterlimit:10"></path><path d="M179.69,232.06s7.76-11.89,9.95-20.39,5.34-25-2.91-18.44-15.53,31.55-14.32,33.25S179.69,232.06,179.69,232.06Z" style="fill:#fff;stroke:#263238;stroke-miterlimit:10"></path><path d="M179.93,258.26c1.46,4.37-1,19.17-1,19.17l16.74,1.7s2.43-18.68.49-27.66-12.86-19.9-12.86-19.9.48-10.67,1.94-17,4.13-13.83,4.13-17.47,0-9.22-1.22-9.47-3.15,1-5.58,4.86-14.31,28.39-16.74,32.75-2.67,6.8-.73,10.92S179.93,258.26,179.93,258.26Z" style="fill:#fff;stroke:#263238;stroke-miterlimit:10"></path><path d="M184.06,235.21s3.39-23.05,3.15-27.9-2.42-8.5-4.12-5.58-1.94,14.56-3.89,19.65-3.64,9-3.15,12.62" style="fill:#fff;stroke:#263238;stroke-miterlimit:10"></path><path d="M189.15,194s-1.45-4.61-5.34,1.7-8.73,25-11.4,30.82c0,0-2.67,2.42-1.94,5.33l.73,2.92" style="fill:none;stroke:#263238;stroke-miterlimit:10"></path><path d="M295.51,376.43c-3.64,12.86-16,22.33-21.83,24.51s-20.39-9-23.78-21.84-2.19-15-2.19-40.76,1.46-65.27,1.46-65.27L270,268.7s19.41,76.43,22.32,84.92a111,111,0,0,1,3.88,13.59" style="fill:#E9F199;stroke:#263238;stroke-miterlimit:10"></path><path d="M149.2,276s-18.44,3.15-19.9,20.38S132.94,329.12,140,343s22.32,40,32.51,50,14.8-6.31,15.29-27.17-18.2-60.91-18.2-60.91" style="fill:#E9F199;stroke:#263238;stroke-miterlimit:10"></path><path d="M158.22,360.33s4-9.37,10.37-14.72" style="fill:none;stroke:#263238;stroke-miterlimit:10"></path><path d="M157.69,348.94s7.72-7.53,12.68-9.55" style="fill:none;stroke:#263238;stroke-miterlimit:10"></path><path d="M165.7,385.41C167.15,387.6,175.88,401,188,404.1c5.28,1.35,5.63-1.29,10.19-10.2,9.95-19.41,7-45.13,7-45.13l-3.64-77.16L179,269.43s-5.82,60.9-9.7,72.06-8.5,27.42-3.64,34.7" style="fill:#E9F199;stroke:#263238;stroke-miterlimit:10"></path><path d="M287.75,336.88a39.76,39.76,0,0,1,15.53,17.72" style="fill:none;stroke:#263238;stroke-miterlimit:10"></path><path d="M291.87,344.89s4.62,5.34,5.83,10.92" style="fill:none;stroke:#263238;stroke-miterlimit:10"></path><line x1="216.75" y1="404.52" x2="237.25" y2="389.61" style="fill:none;stroke:#263238;stroke-miterlimit:10"></line><line x1="208.07" y1="410.83" x2="212.64" y2="407.5" style="fill:none;stroke:#263238;stroke-miterlimit:10"></line><line x1="241.79" y1="391.12" x2="227.02" y2="403.63" style="fill:none;stroke:#263238;stroke-miterlimit:10"></line></g><g id="freepik--Shelf--inject-73"><path d="M335.25,103.48V235.35H464.06V103.48Z" style="fill:none;stroke:#263238;stroke-miterlimit:10"></path><path d="M340.38,108.17V230.66H458.93V108.17Z" style="fill:none;stroke:#263238;stroke-miterlimit:10"></path><rect x="340.51" y="166.75" width="118.51" height="6.44" style="fill:none;stroke:#263238;stroke-miterlimit:10"></rect><path d="M446.4,142.79l-1.47,1.47-5.32,5.33h-3.78l-5.32-5.32L429,142.79a5.1,5.1,0,0,1,7.22-7.21l1.47,1.47,1.47-1.47a5.1,5.1,0,0,1,7.21,7.21Z" style="fill:none;stroke:#263238;stroke-miterlimit:10"></path><polygon points="446.75 149.59 446.75 166.65 427.85 166.65 427.85 149.59 435.83 149.59 439.61 149.59 446.75 149.59" style="fill:none;stroke:#263238;stroke-miterlimit:10"></polygon><rect x="340.51" y="114.81" width="13.93" height="51.94" style="fill:none;stroke:#263238;stroke-miterlimit:10"></rect><rect x="343.43" y="136.56" width="8.1" height="30.19" style="fill:none;stroke:#263238;stroke-miterlimit:10"></rect><circle cx="347.17" cy="124.76" r="2.09" style="fill:none;stroke:#263238;stroke-miterlimit:10"></circle><rect x="357.47" y="114.81" width="13.93" height="51.94" style="fill:none;stroke:#263238;stroke-miterlimit:10"></rect><rect x="360.39" y="136.56" width="8.1" height="30.19" style="fill:none;stroke:#263238;stroke-miterlimit:10"></rect><circle cx="364.13" cy="124.76" r="2.09" style="fill:none;stroke:#263238;stroke-miterlimit:10"></circle><rect x="425.58" y="178.01" width="13.93" height="51.94" transform="translate(35.82 -63.07) rotate(8.7)" style="fill:none;stroke:#263238;stroke-miterlimit:10"></rect><rect x="426.86" y="199.64" width="8.1" height="30.19" transform="translate(37.43 -62.69) rotate(8.7)" style="fill:none;stroke:#263238;stroke-miterlimit:10"></rect><path d="M436.73,188.42A2.09,2.09,0,1,1,435,186,2.09,2.09,0,0,1,436.73,188.42Z" style="fill:none;stroke:#263238;stroke-miterlimit:10"></path><rect x="443.76" y="178.51" width="13.93" height="51.94" style="fill:none;stroke:#263238;stroke-miterlimit:10"></rect><rect x="446.68" y="200.26" width="8.1" height="30.19" style="fill:none;stroke:#263238;stroke-miterlimit:10"></rect><circle cx="450.42" cy="188.46" r="2.09" style="fill:none;stroke:#263238;stroke-miterlimit:10"></circle><rect x="338.44" y="85.3" width="31.09" height="17.83" style="fill:none;stroke:#263238;stroke-miterlimit:10"></rect><polyline points="338.67 85.06 329.99 76.5 341.49 81.19 341.37 77.44 345.95 80.37 344.66 60.31 350.87 73.92 356.15 63.01 357.09 72.28 367.18 64.77 364.72 73.92 367.88 73.33 365.77 78.61 372.34 75.21 370.82 78.38 378.09 75.44 369.53 85.3 338.44 85.3" style="fill:none;stroke:#263238;stroke-miterlimit:10"></polyline><rect x="335.25" y="235.35" width="5.77" height="5.83" style="fill:none;stroke:#263238;stroke-miterlimit:10"></rect><rect x="458.35" y="235.35" width="5.77" height="5.83" style="fill:none;stroke:#263238;stroke-miterlimit:10"></rect></g><g id="freepik--Glasses--inject-73"><path d="M372.64,432.26s23.94,6.91,24.95,7.58-.17,11.8-.84,13.32-2.36,2-2.36,1.18,1.68-11.63,1.68-12.47-10.28-3.37-10.28-3.37-3.2.84-4.05,1.18-9.6-1-9.6-1Z" style="fill:#263238;stroke:#263238;stroke-miterlimit:10"></path><path d="M407,432.26S394.09,427.4,387,428c-11.13,1-15,3.38-15,4.22s.17,2.19.17,2.19.84,13.49,7.92,17.19,15.34,2.87,19.38.85,7.76-6.75,7.76-10.79S407,432.26,407,432.26Z" style="fill:none;stroke:#263238;stroke-miterlimit:10;stroke-width:2px"></path><path d="M411.58,432.26s12.94-4.86,20.06-4.22c11.13,1,15,3.38,15,4.22s-.16,2.19-.16,2.19-.85,13.49-7.93,17.19-15.34,2.87-19.38.85-7.76-6.75-7.76-10.79S411.58,432.26,411.58,432.26Z" style="fill:none;stroke:#263238;stroke-miterlimit:10;stroke-width:2px"></path><polygon points="407.03 432.26 411.58 432.26 411.58 436.47 407.37 436.47 407.03 432.26" style="fill:#263238;stroke:#263238;stroke-miterlimit:10"></polygon><path d="M446.64,432.26s23.94,6.91,24.95,7.58-.17,11.8-.84,13.32-2.36,2-2.36,1.18,1.69-11.63,1.69-12.47-10.29-3.37-10.29-3.37-3.2.84-4,1.18-9.61-1-9.61-1Z" style="fill:#263238;stroke:#263238;stroke-miterlimit:10"></path><line x1="442.22" y1="434.53" x2="426.47" y2="442.76" style="fill:none;stroke:#263238;stroke-miterlimit:10"></line><line x1="430.59" y1="437.92" x2="421.87" y2="442.52" style="fill:none;stroke:#263238;stroke-miterlimit:10"></line><line x1="401.53" y1="434.29" x2="385.78" y2="442.52" style="fill:none;stroke:#263238;stroke-miterlimit:10"></line><line x1="389.9" y1="437.68" x2="381.18" y2="442.28" style="fill:none;stroke:#263238;stroke-miterlimit:10"></line></g><g id="freepik--Device--inject-73"><rect x="162.96" y="450.62" width="211.24" height="3.82" style="fill:#263238"></rect><polygon points="390.25 348.33 236.27 348.33 219.79 454.44 373.77 454.44 390.25 348.33" style="fill:#263238"></polygon><polygon points="390.25 348.33 236.27 348.33 219.79 454.44 373.77 454.44 390.25 348.33" style="fill:#fff;opacity:0.43"></polygon><polygon points="392.7 348.33 238.71 348.33 222.23 454.44 376.22 454.44 392.7 348.33" style="fill:#263238"></polygon><path d="M392.7,348.33h-154L223.1,448.83c12.12.53,72.62,1.49,103.62-30.14a362.46,362.46,0,0,1,62.89-50.45Z" style="fill:#fff;opacity:0.13"></path><ellipse cx="314.33" cy="404.03" rx="13.09" ry="11.52" style="fill:#fff"></ellipse></g><g id="freepik--Table--inject-73"><line x1="16.18" y1="454.74" x2="481.52" y2="454.74" style="fill:none;stroke:#263238;stroke-miterlimit:10"></line></g></svg>